<?xml version="1.0" encoding="UTF-8"?><svg xmlns="http://www.w3.org/2000/svg" viewBox="0 0 281 50.1"><defs><style>.d{fill:#fff;}</style></defs><g id="a"/><g id="b"><g id="c"><path class="d" d="M88.27,24.96c0,2.96-2.03,5.08-4.81,5.08s-4.81-2.22-4.81-5.08,2.03-5.08,4.81-5.08,4.81,2.13,4.81,5.08ZM113.05,5.08V45.02c0,2.77-2.22,5.08-5.08,5.08H5.08c-2.77,0-5.08-2.22-5.08-5.08V5.08C.09,2.22,2.31,0,5.08,0H107.96c2.77,0,5.08,2.22,5.08,5.08ZM35.22,28.28c0-3.42-3.33-4.44-6.19-5.08-2.87-.65-4.25-.92-4.25-2.03,0-1.02,.83-1.57,2.59-1.57,1.57,0,2.68,.65,3.51,2.03,.09,.09,.18,.09,.28,.09l3.24-1.66c.09-.09,.18-.18,.09-.28-1.39-2.4-3.88-3.6-7.21-3.6-4.34,0-7.02,2.13-7.02,5.55,0,3.6,3.33,4.53,6.19,5.18,2.96,.65,4.25,.92,4.25,2.03s-.92,1.66-2.87,1.66c-1.76,0-3.05-.83-3.79-2.31-.09-.09-.18-.18-.28-.09l-3.24,1.39c-.09,.09-.18,.18-.09,.28,1.29,2.59,3.97,4.07,7.49,4.07,4.53,0,7.3-2.13,7.3-5.64Zm18.12-4.9c-.09-4.25-2.87-7.3-6.75-7.3-1.85,0-3.51,.65-4.71,1.85-.09,.09-.18,0-.18-.09v-7.49c0-.09-.09-.28-.28-.28h-4.07c-.09,0-.28,.09-.28,.28v23.2c0,.09,.09,.28,.28,.28h4.07c.09,0,.28-.09,.28-.28v-10.17c0-1.94,1.48-3.51,3.51-3.51s3.51,1.48,3.51,3.51v10.17c0,.09,.09,.28,.28,.28h4.07c.09,0,.28-.09,.28-.28v-10.17Zm18.95,1.94c0-5.73-4.53-9.89-10.63-9.89-2.22,0-4.34,.65-5.82,1.66-.09,.09-.09,.18-.09,.28l1.85,3.05c.09,.09,.18,.18,.28,.09,1.11-.65,2.4-1.02,3.79-1.02,3.6,0,6.19,2.5,6.19,5.82,0,2.87-2.13,4.99-4.81,4.99-2.22,0-3.7-1.29-3.7-3.05,0-1.02,.46-1.85,1.57-2.5,.09-.09,.18-.18,.09-.28l-1.66-2.87c-.09-.09-.18-.09-.28-.09-2.31,.83-3.88,2.87-3.88,5.64,0,4.16,3.33,7.21,7.86,7.21,5.36,0,9.24-3.7,9.24-9.06Zm20.61-.28c-.09-5.08-3.79-8.97-8.6-8.97-2.03,0-3.88,.74-5.27,2.13-.09,.09-.18,0-.18-.09v-1.66c0-.09-.09-.28-.28-.28h-3.97c-.09,0-.28,.09-.28,.28v23.2c0,.09,.09,.28,.28,.28h4.07c.09,0,.28-.09,.28-.28v-7.58c0-.09,.09-.18,.18-.09,1.39,1.29,3.14,2.03,5.18,2.03,4.81,0,8.6-3.88,8.6-8.97Zm35.68,2.5v-4.99h2.31c1.11,0,1.76,.55,1.76,1.57s-.65,1.66-1.76,1.66h-1.39v1.76h-.92Zm.92-2.77h1.11c.65,0,.92-.28,.92-.65s-.28-.65-.92-.65h-1.11v1.29Zm3.51,.28c0-1.57,1.02-2.59,2.59-2.59,1.48,0,2.5,1.02,2.5,2.59,0,1.48-.92,2.59-2.5,2.59s-2.59-1.11-2.59-2.59Zm4.07-.09c0-1.02-.55-1.57-1.48-1.57-1.02,0-1.57,.55-1.57,1.57s.65,1.66,1.57,1.66,1.57-.65,1.48-1.66Zm2.77,2.59l-1.48-4.99h1.11l.92,3.7,1.02-3.7h1.2l1.11,3.7,1.02-3.7h1.11l-1.48,4.99h-1.11l-1.2-3.6-1.11,3.6h-1.11Zm10.45,.09h-3.88v-4.99h3.79v.92h-2.77v1.02h2.59v.92h-2.59v1.11h2.87v1.02Zm1.02-.09v-4.99h2.22c1.11,0,1.76,.55,1.76,1.57,0,.65-.28,1.11-.74,1.29,.28,.09,.46,.28,.55,.74,.09,.65,.09,.83,.28,1.29v.09h-1.02c-.09-.28-.09-.65-.18-1.11-.09-.65-.18-.74-.83-.74h-1.11v1.85h-.92Zm.92-2.77h1.2c.55,0,.83-.28,.83-.65s-.28-.65-.92-.65h-1.11v1.29Zm7.95,2.87h-3.88v-4.99h3.79v.92h-2.77v1.02h2.59v.92h-2.59v1.11h2.87v1.02Zm.92-.09v-4.99h2.13c1.57,0,2.59,.92,2.59,2.5s-1.02,2.5-2.59,2.5h-2.13Zm1.02-1.02h1.11c1.02,0,1.57-.55,1.57-1.57s-.55-1.57-1.57-1.57h-1.11v3.14Zm10.54-.46c0,.83-.65,1.39-1.57,1.39h-2.5v-4.99h2.31c1.02,0,1.57,.46,1.57,1.29,0,.55-.28,.92-.74,1.11,.55,.18,.92,.65,.92,1.2Zm-2.13-2.5h-.92v1.02h1.02c.55,0,.83-.18,.83-.55,0-.46-.28-.55-.92-.55v.09Zm.18,2.96c.65,0,.92-.18,.92-.55s-.28-.55-.92-.55h-1.2v1.11h1.2Zm3.79,1.02v-1.94l-1.94-3.05h1.11l1.29,2.13,1.29-2.13h1.2l-1.94,3.05v1.94h-1.02Zm45.75,2.03c0,2.59-2.13,4.07-5.08,4.07-2.03,0-3.24-.83-3.24-.83l.83-2.31s1.29,.74,2.68,.74c.92,0,1.39-.46,1.39-1.11,0-.55-.37-1.02-1.39-1.57-1.2-.74-2.13-1.76-2.13-3.05,0-2.31,1.94-3.97,4.81-3.97,2.03,0,2.77,.55,2.77,.55l-.74,2.31s-.92-.46-2.03-.46c-.92,0-1.48,.46-1.48,1.11,0,.55,.46,.92,1.29,1.39,1.29,.74,2.4,1.76,2.31,3.14Zm12.2-4.9c0,.55-.09,1.39-.28,2.13l-1.29,6.75h-3.24l1.2-6.56c.09-.46,.18-1.02,.18-1.48,0-.74-.28-1.2-1.02-1.2-1.02,0-2.13,1.39-2.59,3.51l-1.11,5.73h-3.24l3.14-16.73h3.24l-1.29,6.56h.09c.83-1.11,1.94-1.76,3.42-1.76,1.66,0,2.68,1.11,2.77,3.05Zm11.74,1.48c0,4.07-2.59,7.49-6.47,7.49-2.96,0-4.53-2.03-4.53-4.53,0-3.97,2.59-7.49,6.56-7.49,3.05,0,4.44,2.22,4.44,4.53Zm-3.33-.09c0-.92-.37-1.94-1.57-1.94-1.76,0-2.77,3.05-2.77,4.9,0,1.2,.46,2.13,1.57,2.13,1.76,0,2.77-3.05,2.77-5.08Zm15.07-.28c0,3.97-2.5,7.95-6.38,7.95-1.29,0-1.94-.46-1.94-.46h-.09l-.92,4.81h-3.24l2.31-11.92c.28-1.39,.46-3.14,.65-4.34h2.87l-.18,1.76h.09s1.2-1.94,3.42-1.94c2.4,0,3.42,1.94,3.42,4.16Zm-3.51,.28c0-.83-.28-1.76-1.29-1.76-1.11,0-2.22,1.39-2.59,3.42l-.55,3.05s.55,.46,1.39,.46c1.85,0,3.14-3.05,3.05-5.18Zm9.89-7.49c0,1.29-.92,1.94-1.94,1.94h-.09c-.92,0-1.57-.65-1.57-1.66,0-1.11,.83-1.94,1.85-1.94s1.66,.65,1.76,1.66Zm-4.16,3.33h3.33l-2.22,11.55h-3.24l2.13-11.55Zm11.09,2.4h-2.22l-1.76,9.15h-3.24l1.76-9.15h-1.48l.46-2.5h1.48l.09-.55c.18-1.39,.74-2.77,1.85-3.7,.92-.74,2.03-1.11,3.24-1.11s1.76,.28,1.76,.28l-.65,2.59s-.46-.18-1.02-.18c-1.11,0-1.76,1.02-1.94,2.13l-.09,.55h2.31l-.55,2.5Zm8.41-2.5h3.33l-3.97,8.6c-1.39,2.96-2.77,5.08-4.25,6.47-1.2,1.11-2.59,1.57-3.24,1.76l-.92-2.77c.55-.18,1.2-.46,1.85-.92,.74-.46,1.39-1.2,1.76-1.94,.09-.18,.18-.28,.09-.55l-1.94-10.63h3.42s.74,7.03,.83,7.95h.09c.92-2.77,2.96-7.95,2.96-7.95h0Zm-75.98,16.36V14.7c.37,.46,1.57,1.57,1.57,1.57h2.03c.18,0,.28,.09,.28,.18s2.96,20.06,2.96,20.06l-6.84,1.66h0Zm-.55-23.85v24.03l-16.45-2.87s1.94-15.34,2.03-15.9q.18-.74,.92-1.02s1.11-.37,2.59-.83c.18-1.11,.74-2.59,1.48-3.79,1.11-1.66,2.4-2.68,3.7-2.68,.65-.09,1.2,.18,1.66,.65l.09,.09h.18c1.02,0,1.85,.55,2.4,1.66,.18,.28,.28,.65,.37,.92l.83-.28h.18Zm-4.53-1.29c-.37,.09-.65,.37-.92,.65-.65,.65-1.11,1.66-1.39,2.68,.92-.28,1.94-.55,2.77-.83,.09-.74,0-1.76-.46-2.5Zm-5.55,4.44c.74-.28,1.48-.46,2.31-.74,.28-1.29,.92-2.68,1.76-3.6,.28-.37,.65-.65,1.02-.83-.28-.09-.55-.18-.83-.18-2.03,0-3.79,3.24-4.25,5.36Zm3.33,5.27c1.11-.09,2.03,.37,2.03,.37l.83-3.14s-.74-.37-2.13-.28c-3.7,.28-5.36,2.87-5.18,5.36,.18,2.96,3.24,2.87,3.33,4.71,0,.46-.28,1.02-1.02,1.11-1.2,.09-2.68-1.02-2.68-1.02l-.55,2.4s1.48,1.57,4.16,1.39c2.22-.18,3.79-1.94,3.6-4.53-.18-3.33-3.88-3.6-3.97-4.99-.09-.28,0-1.29,1.57-1.39Zm4.9-7.95c-.18-.65-.65-1.76-1.66-1.94,.28,.83,.37,1.76,.37,2.4,.46-.09,.92-.28,1.29-.46Z"/></g></g></svg>